<?xml version="1.0" standalone="no"?>
<!DOCTYPE svg PUBLIC "-//W3C//DTD SVG 20010904//EN"
 "http://www.w3.org/TR/2001/REC-SVG-20010904/DTD/svg10.dtd">
<svg version="1.0" xmlns="http://www.w3.org/2000/svg"
 width="1024.000000pt" height="1024.000000pt" viewBox="0 0 1024.000000 1024.000000"
 preserveAspectRatio="xMidYMid meet">

<g transform="translate(0.000000,1024.000000) scale(0.100000,-0.100000)"
fill="#000000" stroke="none">
<path d="M5695 7891 c-4 -7 -106 -9 -298 -6 -161 3 -350 1 -422 -5 -71 -5
-202 -14 -290 -20 -374 -26 -657 -74 -1245 -214 -80 -19 -156 -37 -170 -40
-48 -9 -165 -36 -200 -46 -19 -6 -109 -26 -200 -46 -91 -19 -181 -39 -200 -44
-53 -14 -402 -102 -428 -107 -28 -7 -28 -18 1 -21 12 -1 189 -2 392 -2 295 -1
366 -3 350 -13 -28 -17 -749 -15 -770 3 -10 8 -44 10 -125 5 -179 -12 -155
-20 149 -51 l65 -6 -29 -22 c-16 -11 -81 -67 -145 -122 -150 -132 -302 -290
-495 -514 -26 -30 -59 -68 -74 -85 -105 -117 -437 -518 -496 -601 -17 -23 -64
-86 -105 -140 -240 -314 -357 -556 -428 -883 -25 -116 -27 -143 -26 -331 1
-208 7 -256 66 -515 10 -45 12 -47 20 -25 6 14 7 72 4 130 l-5 105 22 -80 c35
-120 58 -157 131 -209 70 -51 114 -71 195 -92 84 -22 248 -37 342 -31 l86 6 7
-162 c15 -346 101 -772 216 -1067 23 -58 49 -128 60 -156 30 -84 154 -336 217
-440 172 -289 248 -391 487 -652 127 -139 156 -167 303 -292 160 -137 206
-170 224 -165 13 5 20 0 24 -18 6 -22 60 -65 210 -164 157 -104 530 -299 690
-361 300 -116 368 -138 585 -190 330 -80 589 -107 945 -99 493 11 971 119
1460 330 364 157 801 436 1060 679 28 25 67 60 89 77 82 66 327 339 453 507
202 270 374 578 468 839 18 50 49 132 69 183 51 130 105 365 151 658 25 157
35 458 24 681 -5 108 -11 199 -14 202 -2 4 -9 48 -15 97 -23 185 -80 435 -142
619 -236 703 -650 1291 -1231 1749 -171 135 -155 123 -302 218 -268 175 -517
303 -781 403 -82 31 -171 65 -199 75 -46 18 -182 57 -350 100 -38 10 -133 28
-210 41 -77 12 -144 26 -148 30 -10 8 10 191 24 230 9 24 14 26 45 19 19 -5
34 -4 34 1 0 5 -9 9 -20 9 -10 0 -27 8 -37 19 -22 23 -59 35 -68 22z m-140
-70 c2 -5 -48 -8 -113 -8 -64 0 -170 -8 -235 -17 -65 -9 -130 -16 -145 -15
l-27 1 30 9 c67 21 218 37 348 37 75 0 139 -3 142 -7z m117 -7 c8 -8 -17 -111
-41 -168 -17 -38 -25 -47 -39 -41 -9 4 -62 14 -117 21 -54 7 -115 16 -135 19
-99 16 -134 19 -235 18 l-110 0 80 17 c44 9 112 26 150 37 39 12 122 33 185
48 63 15 129 33 145 40 31 14 107 20 117 9z m-669 -41 c-7 -2 -19 -2 -25 0 -7
3 -2 5 12 5 14 0 19 -2 13 -5z m656 -859 c125 -31 223 -29 341 7 124 37 243
14 340 -67 80 -68 95 -197 47 -414 -22 -95 -119 -383 -160 -470 -19 -41 -46
-100 -59 -131 -36 -80 -111 -190 -162 -237 -61 -56 -137 -77 -224 -62 -81 14
-106 27 -159 82 -111 116 -190 280 -330 688 -35 103 -66 251 -70 345 l-5 100
40 50 c106 132 200 158 401 109z m1039 -518 c26 3 119 -4 207 -15 245 -31 299
-41 310 -53 7 -7 2 -9 -18 -4 -143 34 -187 37 -378 26 -105 -6 -197 -12 -203
-13 -12 -2 -13 51 -2 80 6 14 8 14 22 -5 12 -18 21 -20 62 -16z m37 -633 c-22
-54 -34 -108 -26 -116 5 -5 34 -6 67 -2 58 7 63 10 132 88 21 24 41 37 57 37
l25 0 -36 -56 c-28 -44 -33 -58 -23 -70 6 -8 17 -14 23 -14 7 0 54 -20 105
-45 105 -51 105 -51 147 24 15 25 37 54 51 65 l25 18 -16 -30 c-8 -16 -27 -45
-42 -63 -22 -28 -18 -25 22 11 27 25 59 54 72 65 l22 19 -24 -57 c-14 -31 -39
-77 -56 -104 l-30 -48 32 -25 c18 -14 56 -49 84 -79 l52 -55 66 64 c37 35 66
57 66 48 0 -16 -34 -87 -63 -128 -16 -25 -16 -27 11 -65 15 -22 30 -42 35 -43
4 -2 17 -22 28 -43 l20 -40 41 30 c23 17 47 31 54 31 6 0 23 9 38 21 15 11 33
18 42 15 20 -8 8 -26 -16 -26 -13 0 -28 -18 -47 -57 -24 -49 -33 -58 -55 -58
-14 0 -29 -2 -32 -5 -3 -3 7 -44 23 -90 l28 -84 64 3 c35 1 97 7 138 12 41 5
76 7 78 6 3 -4 -86 -60 -147 -93 -14 -8 -44 -19 -67 -24 l-43 -11 0 -139 c0
-76 -5 -151 -11 -167 -22 -57 -29 -144 -13 -168 18 -28 10 -35 -38 -35 -21 0
-38 -4 -38 -10 0 -5 6 -10 13 -11 7 0 6 -3 -3 -6 -8 -4 -21 -12 -29 -20 -11
-12 -11 -16 5 -29 18 -15 18 -15 -4 -11 -12 3 -31 -2 -44 -12 -28 -23 -31 -88
-5 -113 9 -10 17 -24 17 -32 0 -21 -85 -9 -144 20 -57 27 -79 31 -50 9 18 -14
16 -15 -25 -13 -33 2 -46 -1 -55 -15 -9 -15 -5 -22 22 -46 17 -16 32 -31 32
-35 0 -11 -71 -6 -93 6 -23 13 -157 18 -157 6 0 -4 25 -22 55 -40 65 -39 57
-46 -47 -47 -38 -1 -68 -5 -68 -9 0 -4 -12 -9 -26 -10 -47 -4 -152 -83 -182
-137 -11 -19 -11 -19 -12 4 0 20 -3 22 -12 13 -17 -17 -38 -15 -38 3 0 9 -12
20 -26 25 -52 20 -80 12 -161 -48 -116 -86 -133 -96 -133 -77 0 9 7 32 15 52
8 19 15 39 15 44 0 5 -26 9 -59 9 -53 0 -60 3 -77 27 l-18 28 -12 -30 c-7 -17
-13 -40 -14 -53 0 -33 -24 -23 -28 12 l-3 27 -30 -26 c-22 -17 -42 -25 -70
-25 l-39 0 25 50 c14 27 25 51 25 54 0 2 -30 4 -67 3 -119 -2 -274 10 -285 21
-18 18 -4 24 66 31 36 4 68 10 72 14 9 9 -15 37 -32 37 -16 0 -24 13 -34 54
-5 17 -20 59 -34 94 l-25 63 47 -49 c45 -47 51 -50 132 -65 47 -9 126 -23 175
-32 216 -40 280 -44 410 -23 198 32 376 102 490 191 60 47 177 195 193 245 15
45 7 40 -17 -10 -19 -43 -67 -105 -75 -97 -3 2 2 36 10 74 45 206 -46 352
-291 470 -94 44 -373 141 -439 150 -56 9 -57 19 -12 88 19 29 39 64 45 80 6
15 15 27 20 27 35 0 335 -85 401 -114 331 -143 495 -356 477 -618 -3 -40 -8
-84 -12 -98 l-7 -25 20 25 c36 44 57 144 57 270 0 98 -5 128 -28 200 -15 47
-41 110 -58 140 -18 30 -38 67 -45 81 -25 47 -149 183 -220 240 -123 101 -271
180 -408 221 l-78 23 6 35 c3 19 6 45 6 57 0 17 13 29 50 48 28 14 50 27 50
29 0 2 -21 -2 -46 -10 -47 -14 -59 -2 -19 20 11 6 37 26 59 44 44 36 73 43 61
15z m-1425 -58 c32 -45 147 -163 190 -194 36 -27 162 -75 225 -85 l40 -7 -1
-72 0 -72 -38 -9 c-29 -6 -47 -5 -73 8 -56 26 -140 113 -159 163 -13 34 -27
49 -57 65 -37 19 -52 20 -191 14 -164 -8 -345 -27 -471 -52 -102 -20 -285 -70
-342 -95 -63 -27 -162 -43 -215 -35 -39 6 -45 10 -41 26 7 27 126 131 193 168
62 35 156 70 281 105 148 42 165 46 459 88 41 6 82 12 90 14 58 11 85 4 110
-30z m847 -162 c-8 -16 -23 -46 -33 -68 -23 -48 -123 -148 -166 -166 -28 -11
-32 -10 -50 12 -44 55 -46 99 -5 99 28 0 133 36 165 56 31 20 62 52 62 64 0 7
27 29 38 30 2 0 -3 -12 -11 -27z m-260 -97 c-12 -9 -33 -12 -60 -9 -77 10 -75
22 3 22 66 0 73 -1 57 -13z m-896 -185 c43 -13 89 -56 89 -83 0 -22 -39 -85
-71 -114 -13 -12 -46 -36 -73 -53 l-50 -31 -194 0 c-190 0 -529 -20 -702 -40
-187 -23 -388 -78 -512 -141 -55 -28 -58 -23 -7 13 24 18 104 82 178 143 73
60 152 124 176 140 23 17 60 46 82 65 22 19 51 44 64 54 13 10 31 25 40 32 10
9 57 16 139 19 68 3 126 8 129 11 11 10 676 -3 712 -15z m327 -33 c138 -16
182 -25 182 -35 0 -29 -155 -489 -171 -507 -4 -4 -40 -2 -81 5 -172 29 -348 2
-505 -80 -67 -35 -86 -51 -133 -113 -30 -40 -57 -77 -59 -83 -2 -5 -14 -22
-27 -37 -48 -58 -66 -132 -66 -273 0 -227 44 -394 145 -545 34 -52 77 -104 94
-115 18 -11 32 -24 33 -29 0 -11 -225 1 -248 14 -10 4 -52 13 -95 19 -151 21
-444 94 -509 127 -28 14 -129 51 -226 84 -98 32 -226 81 -287 110 -115 55
-314 140 -327 140 -5 0 -50 20 -101 44 -112 53 -169 72 -432 140 -69 18 -156
57 -153 68 2 5 46 28 98 52 229 104 461 224 639 330 52 31 98 56 103 56 11 0
-4 -35 -47 -110 -48 -84 -81 -202 -89 -315 l-5 -90 32 39 c18 22 44 53 60 69
15 17 27 34 27 39 0 6 9 23 21 39 11 16 18 33 15 38 -4 5 5 8 18 7 14 -2 25 0
24 3 -2 20 3 31 12 26 6 -3 13 1 16 9 9 24 170 126 232 147 30 10 78 30 106
43 28 13 67 26 86 30 50 9 103 21 200 46 47 12 126 30 175 40 365 74 647 161
775 239 27 17 54 31 58 31 4 0 30 16 59 35 61 41 72 40 164 -15 63 -39 168
-85 175 -78 6 7 -241 143 -253 140 -20 -4 -16 9 11 37 34 37 66 101 66 133 0
16 -9 37 -20 48 l-20 20 23 0 c12 0 104 -10 205 -22z m1067 -312 c0 0 22 -44
50 -98 41 -80 47 -99 36 -111 -7 -9 -19 -13 -27 -10 -8 3 -14 1 -15 -3 -5 -39
-6 -80 -3 -86 7 -12 34 3 34 19 0 8 5 11 10 8 13 -8 13 -66 0 -101 -8 -20 -8
-29 1 -34 17 -11 -3 -46 -68 -117 -24 -26 -37 -33 -53 -28 -11 4 -17 11 -14
17 5 7 1 9 -9 5 -20 -8 -33 29 -36 103 -1 53 -20 116 -62 208 -21 47 -24 72
-9 72 6 0 10 12 10 28 0 20 3 23 10 12 11 -18 11 -18 39 50 32 76 38 82 75 74
17 -3 31 -7 31 -8z m-1575 -9 c-14 -7 -37 -20 -52 -30 -15 -11 -32 -17 -39
-15 -12 4 88 59 106 57 5 0 -1 -6 -15 -12z m1654 -17 c23 0 134 -79 174 -126
46 -52 85 -126 103 -197 15 -61 -2 -208 -33 -281 -25 -58 -71 -129 -108 -164
-50 -48 -136 -98 -188 -110 -82 -18 -190 -15 -239 8 -24 10 -43 21 -43 23 0 1
16 1 36 -1 52 -6 36 12 -34 38 -74 28 -131 76 -162 136 -21 41 -25 63 -25 136
0 51 5 92 11 98 9 9 10 5 7 -14 -5 -25 7 -30 33 -13 19 11 27 -26 9 -39 -11
-8 -12 -14 -6 -19 13 -8 51 3 51 15 0 4 11 10 25 12 21 5 25 2 25 -20 0 -17 3
-23 10 -16 5 5 26 8 45 6 29 -3 35 -8 35 -28 0 -19 5 -24 24 -24 19 0 25 -7
31 -36 4 -26 2 -41 -9 -53 -9 -10 -16 -26 -16 -35 0 -16 7 -17 73 -11 39 4 81
13 93 20 38 24 133 116 153 148 36 58 36 172 2 330 -15 67 -41 123 -86 181
-23 30 -31 46 -20 42 9 -3 22 -6 29 -6z m47 -166 c5 -15 8 -29 5 -31 -2 -2 -8
10 -14 26 -13 38 -5 41 9 5z m1310 -158 c35 -19 64 -40 64 -47 0 -28 -65 -52
-144 -53 l-76 -1 -3 57 c-3 53 -2 56 25 66 46 17 67 14 134 -22z m-2560 -100
c-27 -96 -61 -277 -61 -331 0 -113 53 -284 129 -416 23 -39 41 -75 41 -80 0
-4 19 -30 43 -56 23 -27 60 -72 82 -101 21 -29 44 -52 50 -52 5 0 15 -8 22
-19 11 -17 7 -19 -40 -25 -88 -10 -535 -7 -655 6 l-114 11 -54 66 c-30 35 -54
70 -54 77 0 6 -7 17 -15 24 -8 7 -15 17 -15 22 0 5 19 -14 41 -44 66 -84 101
-118 123 -118 21 1 21 1 1 11 -31 17 -92 87 -151 174 -47 69 -56 92 -70 165
-28 144 5 282 98 422 90 135 277 233 501 263 43 6 49 10 68 48 12 23 27 48 33
56 20 26 19 -28 -3 -103z m789 -16 c0 -5 -4 -10 -10 -10 -5 0 -10 5 -10 10 0
6 5 10 10 10 6 0 10 -4 10 -10z m294 -105 c16 -12 17 -15 4 -15 -8 0 -21 7
-28 15 -16 19 -1 19 24 0z m61 -63 c-19 -35 -46 -64 -53 -57 -5 5 28 67 46 88
24 27 28 10 7 -31z m-3288 -77 c-7 -13 -14 -20 -15 -14 -5 14 6 39 17 39 5 0
4 -11 -2 -25z m4497 -21 c9 -8 16 -18 16 -20 0 -7 -38 15 -45 26 -10 16 12 12
29 -6z m-5317 -77 c-3 -8 39 -36 122 -79 130 -68 369 -205 501 -288 41 -26
111 -66 155 -90 44 -24 95 -54 112 -67 18 -13 71 -42 118 -65 47 -22 84 -42
83 -44 -10 -9 -206 58 -313 106 -22 10 -107 48 -188 85 -82 36 -181 81 -220
101 -40 20 -137 64 -217 99 -143 62 -242 108 -309 144 -39 21 -61 51 -36 51 8
0 15 4 15 8 0 16 101 45 136 39 19 -3 34 -2 34 4 0 5 3 9 6 9 3 0 4 -6 1 -13z
m-220 -150 c12 -48 43 -211 68 -363 26 -152 53 -294 61 -316 l14 -39 -56 57
c-31 31 -65 78 -76 103 -53 123 -209 548 -212 580 -1 13 148 73 169 67 6 -1
20 -41 32 -89z m4191 16 c-10 -2 -26 -2 -35 0 -10 3 -2 5 17 5 19 0 27 -2 18
-5z m-468 -64 c0 -5 -4 -9 -10 -9 -5 0 -10 7 -10 16 0 8 5 12 10 9 6 -3 10
-10 10 -16z m-3483 -651 c12 -13 26 -45 32 -73 5 -27 17 -81 26 -120 25 -108
29 -175 11 -175 -21 0 -25 -21 -9 -54 8 -15 12 -37 10 -48 -4 -15 -1 -18 13
-13 15 5 21 -2 30 -35 6 -22 15 -38 21 -35 5 4 6 17 3 30 -6 23 -5 23 20 12
15 -7 28 -21 30 -32 24 -126 27 -152 17 -177 -6 -16 -8 -56 -4 -93 7 -72 6
-73 -58 -54 -36 11 -38 15 -54 78 -8 36 -17 80 -19 97 -2 17 -9 64 -15 105 -5
41 -12 92 -15 114 -7 54 -40 241 -70 405 -30 157 -32 192 -8 133 9 -23 27 -52
39 -65z m179 -948 c2 -14 9 -45 14 -70 6 -25 17 -92 25 -149 22 -147 45 -243
63 -264 21 -23 27 -114 12 -176 -11 -47 -10 -55 18 -128 26 -67 82 -273 82
-300 0 -5 -15 -7 -34 -5 -23 3 -33 8 -30 17 3 7 -1 19 -9 26 -21 22 -54 142
-71 264 -9 61 -23 157 -31 215 -8 58 -28 177 -45 264 -16 88 -34 196 -40 240
-6 45 -13 91 -15 103 -5 22 -5 22 25 5 17 -10 33 -28 36 -42z m208 -677 c-24
-31 -50 -50 -59 -41 -10 10 9 38 40 58 37 24 44 17 19 -17z"/>
<path d="M5435 6836 c-66 -29 -115 -124 -115 -221 0 -40 23 -170 36 -205 7
-18 28 16 44 71 8 30 18 39 55 53 65 25 85 19 113 -37 24 -46 24 -48 7 -67
-26 -29 -39 -25 -62 23 l-22 42 0 -43 c-1 -27 6 -54 18 -70 10 -15 25 -49 34
-77 25 -79 87 -329 87 -353 0 -49 18 -16 38 71 34 144 46 258 47 442 0 167 0
171 -28 223 -70 132 -163 187 -252 148z"/>
<path d="M6100 6838 c0 -4 -17 -16 -37 -27 -48 -25 -100 -89 -124 -151 -17
-45 -18 -73 -12 -359 5 -236 9 -311 19 -311 6 0 15 12 19 28 4 15 10 21 12 14
3 -7 -1 -26 -7 -43 -16 -38 -8 -48 9 -11 8 15 18 35 23 45 5 10 7 26 4 35 -3
9 -1 24 5 32 8 11 9 9 4 -10 -6 -19 -4 -22 5 -14 6 7 23 49 37 95 21 70 26
112 30 247 l6 163 28 -27 c27 -26 30 -26 74 -14 25 7 48 10 51 7 8 -7 -34 -92
-56 -112 -10 -9 -27 -17 -39 -18 -25 -2 -29 -38 -7 -57 23 -18 94 54 135 135
29 60 33 77 33 146 -1 88 -28 159 -74 192 -27 20 -138 32 -138 15z m-73 -650
c-3 -8 -6 -5 -6 6 -1 11 2 17 5 13 3 -3 4 -12 1 -19z"/>
<path d="M7420 4135 c33 -19 46 -19 30 0 -7 8 -22 15 -34 15 -20 -1 -20 -2 4
-15z"/>
<path d="M7367 4100 c14 -6 21 -15 17 -23 -3 -8 2 -17 10 -20 9 -4 16 -2 16 2
0 5 10 7 22 3 14 -3 19 -2 14 6 -4 7 -1 12 6 13 26 1 -48 28 -77 28 -28 0 -28
-1 -8 -9z"/>
<path d="M4389 4506 c-2 -2 -42 -11 -89 -20 -104 -19 -211 -43 -215 -48 -11
-11 33 -122 72 -183 41 -63 158 -195 174 -195 3 0 9 33 13 73 7 84 33 192 69
294 14 39 23 74 19 77 -6 7 -37 8 -43 2z"/>
<path d="M3843 4394 c-4 -12 -15 -14 -47 -10 -29 4 -34 3 -16 -3 23 -7 22 -9
-20 -20 -25 -6 -65 -19 -90 -29 -43 -17 -45 -20 -45 -57 2 -189 54 -325 163
-426 37 -34 76 -65 87 -70 11 -5 34 -18 50 -29 76 -50 231 -91 402 -106 72 -7
76 -6 71 12 -3 10 -11 42 -18 69 -34 135 -34 135 -125 180 -53 26 -140 91
-151 114 -6 12 -18 27 -26 34 -67 56 -125 179 -144 302 -6 43 -6 43 -42 38
-25 -4 -33 -3 -28 5 4 7 2 12 -4 12 -6 0 -13 -7 -17 -16z"/>
<path d="M3413 4260 c-5 -14 -13 -52 -17 -86 -8 -78 16 -160 73 -243 35 -52
38 -59 18 -52 -30 12 -298 131 -318 142 -16 8 -14 48 6 134 l8 30 -22 -24
c-14 -17 -21 -37 -21 -68 0 -47 -6 -51 -50 -28 l-30 16 0 -35 c0 -39 6 -45 50
-51 16 -2 59 -17 95 -34 36 -17 123 -54 193 -82 70 -27 148 -59 174 -70 26
-10 53 -19 60 -19 7 0 52 -18 101 -39 48 -22 87 -37 87 -35 0 3 -34 21 -75 39
-161 74 -215 127 -264 263 -20 55 -48 177 -54 232 -3 34 -3 35 -14 10z"/>
<path d="M5066 4219 c-117 -33 -198 -104 -237 -209 -29 -76 -23 -238 12 -320
53 -124 136 -207 247 -246 61 -22 81 -24 230 -22 89 1 162 6 162 10 0 5 -20
28 -44 51 -25 23 -83 94 -130 157 -146 195 -186 330 -152 505 9 44 16 83 16
88 0 11 -29 7 -104 -14z"/>
<path d="M10080 80 l0 -80 80 0 80 0 0 80 0 80 -80 0 -80 0 0 -80z"/>
</g>
</svg>
